<svg width="52" height="52" viewBox="0 0 52 52" fill="none" xmlns="http://www.w3.org/2000/svg">
<g clip-path="url(#clip0_65_146)">
<path d="M38.6388 6.13892H13.361C10.9676 6.14178 8.67301 7.09384 6.98059 8.78626C5.28818 10.4787 4.33612 12.7733 4.33325 15.1667L4.33325 29.6111C4.33612 32.0046 5.28818 34.2992 6.98059 35.9916C8.67301 37.684 10.9676 38.636 13.361 38.6389H24.1944V42.25H16.9721C16.4933 42.25 16.034 42.4403 15.6954 42.7789C15.3568 43.1175 15.1666 43.5767 15.1666 44.0556C15.1666 44.5344 15.3568 44.9937 15.6954 45.3323C16.034 45.6709 16.4933 45.8611 16.9721 45.8611H35.0277C35.5066 45.8611 35.9658 45.6709 36.3044 45.3323C36.643 44.9937 36.8333 44.5344 36.8333 44.0556C36.8333 43.5767 36.643 43.1175 36.3044 42.7789C35.9658 42.4403 35.5066 42.25 35.0277 42.25H27.8055V38.6389H38.6388C41.0322 38.636 43.3268 37.684 45.0192 35.9916C46.7117 34.2992 47.6637 32.0046 47.6666 29.6111V15.1667C47.6637 12.7733 46.7117 10.4787 45.0192 8.78626C43.3268 7.09384 41.0322 6.14178 38.6388 6.13892ZM38.6388 24.1945H33.2853L30.2159 28.8077C30.0504 29.0556 29.8262 29.2588 29.5631 29.399C29.3 29.5392 29.0063 29.6121 28.7083 29.6111C28.6703 29.6111 28.6324 29.6111 28.5963 29.6111C28.2804 29.5917 27.9752 29.4895 27.7112 29.3149C27.4472 29.1403 27.2338 28.8994 27.0923 28.6163L23.0677 20.5617L21.1827 23.391C21.0178 23.6382 20.7944 23.8409 20.5323 23.981C20.2703 24.1212 19.9777 24.1945 19.6805 24.1945H13.361C12.8822 24.1945 12.4229 24.0042 12.0843 23.6656C11.7457 23.327 11.5555 22.8678 11.5555 22.3889C11.5555 21.9101 11.7457 21.4508 12.0843 21.1122C12.4229 20.7736 12.8822 20.5834 13.361 20.5834H18.7145L21.7839 15.9702C21.9577 15.704 22.1995 15.4891 22.4843 15.3478C22.7691 15.2065 23.0864 15.144 23.4035 15.1667C23.7194 15.1862 24.0247 15.2883 24.2886 15.4629C24.5526 15.6375 24.766 15.8785 24.9076 16.1616L28.9321 24.2125L30.8171 21.3832C30.9825 21.1367 31.2061 20.9347 31.4681 20.7952C31.7301 20.6557 32.0225 20.5829 32.3194 20.5834H38.6388C39.1177 20.5834 39.5769 20.7736 39.9155 21.1122C40.2541 21.4508 40.4444 21.9101 40.4444 22.3889C40.4444 22.8678 40.2541 23.327 39.9155 23.6656C39.5769 24.0042 39.1177 24.1945 38.6388 24.1945Z" fill="#6C5DCE"/>
</g>
<defs>
<clipPath id="clip0_65_146">
<rect width="43.3333" height="43.3333" fill="white" transform="translate(4.33331 4.33337)"/>
</clipPath>
</defs>
</svg>
