<svg width="52" height="52" viewBox="0 0 52 52" fill="none" xmlns="http://www.w3.org/2000/svg">
<g clip-path="url(#clip0_65_124)">
<path d="M33.8506 30.9162L19.7456 45.0212C18.0412 46.7257 15.7752 47.6646 13.363 47.6646C10.9508 47.6646 8.68478 46.7257 6.98034 45.0212C3.46131 41.5004 3.46131 35.7732 6.98034 32.2541L21.0853 18.1491L33.8524 30.9162H33.8506ZM30.9852 4.40344L28.4321 6.9565L30.3533 8.87761L23.6366 15.5943L36.4037 28.3614L43.1221 21.6429L45.0433 23.564L47.5963 21.0109L30.9852 4.40344ZM45.5506 45.5502C46.9156 44.187 47.6667 42.3725 47.6667 40.4441C47.6667 38.5158 46.9156 36.7012 45.5362 35.3236L40.4445 30.3421L35.3384 35.338C33.9734 36.7012 33.2223 38.5158 33.2223 40.4441C33.2223 42.3725 33.9734 44.187 35.3384 45.5502C36.7034 46.9152 38.5162 47.6664 40.4445 47.6664C42.3728 47.6664 44.1856 46.9152 45.5506 45.5502Z" fill="#6C5DCE"/>
</g>
<defs>
<clipPath id="clip0_65_124">
<rect width="43.3333" height="43.3333" fill="white" transform="translate(4.33337 4.33337)"/>
</clipPath>
</defs>
</svg>
