<svg width="52" height="52" viewBox="0 0 52 52" fill="none" xmlns="http://www.w3.org/2000/svg">
<g clip-path="url(#clip0_65_129)">
<path d="M38.6389 18.7777H45.8611C45.8611 13.7998 41.8113 9.74992 36.8334 9.74992H32.2274C31.785 6.69672 29.1742 4.33325 26 4.33325C22.8259 4.33325 20.215 6.69672 19.7727 9.74992H15.1667C10.1888 9.74992 6.13892 13.7998 6.13892 18.7777H35.0278V22.3888H6.13892V35.0277C6.13892 40.0056 10.1888 44.0555 15.1667 44.0555H20.5834V47.8092H24.1945V44.0555H27.8056V47.8092H31.4167V44.0555H36.8334C41.192 44.0555 44.8392 40.9481 45.6788 36.8333H38.6389V33.2221H45.8611V29.611H38.6389V25.9999H45.8611V22.3888H38.6389V18.7777ZM26 13.361C24.5068 13.361 23.2917 12.1459 23.2917 10.6527C23.2917 9.1595 24.5068 7.94436 26 7.94436C27.4932 7.94436 28.7084 9.1595 28.7084 10.6527C28.7084 12.1459 27.4932 13.361 26 13.361Z" fill="#6C5DCE"/>
</g>
<defs>
<clipPath id="clip0_65_129">
<rect width="43.3333" height="43.3333" fill="white" transform="translate(4.33337 4.33337)"/>
</clipPath>
</defs>
</svg>
