<svg width="52" height="52" viewBox="0 0 52 52" fill="none" xmlns="http://www.w3.org/2000/svg">
<path d="M26.2175 34.6084C26.5416 35.1365 27.1175 35.4572 27.7371 35.4541C28.3566 35.4509 28.9301 35.125 29.2488 34.5938L34.4001 26H46.656C45.8125 29.8196 43.4154 33.4841 39.4968 36.9258C37.859 38.363 35.927 39.6982 33.5906 41.0049C31.254 42.3098 28.6284 43 25.9998 43C23.3712 42.9999 20.7464 42.3097 18.4119 41.0049C16.0735 39.6963 14.1396 38.363 12.5037 36.9258C10.0213 34.7464 8.15055 32.4767 6.89722 30.1357H13.8357C14.2989 30.1357 14.7438 29.9546 15.075 29.6309L20.1306 24.6836L26.2175 34.6084ZM17.948 9.00977C20.6641 9.12139 23.1682 10.2807 25.0007 12.2754L25.9968 13.3623L26.991 12.2754C28.8235 10.2805 31.3285 9.12142 34.0447 9.00977C37.0473 8.88508 40.0907 10.0501 42.4158 12.1982H42.4226C44.4814 14.1038 46.8508 17.8906 46.9919 22.4541H33.3962C32.7733 22.4541 32.195 22.7811 31.8748 23.3154L27.7107 30.2617L21.9919 20.9365C21.7099 20.4767 21.2333 20.1708 20.698 20.1045C20.23 20.0467 19.7614 20.1778 19.3933 20.4639L19.2419 20.5957L13.113 26.5908H5.48608C5.17954 25.4286 5.0171 24.2515 5.00171 23.0615C4.93695 18.2278 7.42552 14.1877 9.5769 12.1982C11.9001 10.0499 14.9414 8.88119 17.948 9.00977Z" fill="#6C5DCE"/>
</svg>
