<svg width="52" height="52" viewBox="0 0 52 52" fill="none" xmlns="http://www.w3.org/2000/svg">
<g clip-path="url(#clip0_65_141)">
<path d="M29.611 16.9721V5.16381C31.2812 5.79455 32.7983 6.77312 34.0617 8.03464L40.3523 14.3288C41.6152 15.5907 42.5945 17.1074 43.2249 18.7777H31.4166C30.9377 18.7777 30.4784 18.5875 30.1398 18.2489C29.8012 17.9103 29.611 17.451 29.611 16.9721ZM44.0554 23.2645V38.6388C44.0526 41.0322 43.1005 43.3268 41.4081 45.0192C39.7157 46.7117 37.4211 47.6637 35.0277 47.6666H16.9721C14.5787 47.6637 12.2841 46.7117 10.5917 45.0192C8.89926 43.3268 7.9472 41.0322 7.94434 38.6388V13.361C7.9472 10.9676 8.89926 8.67301 10.5917 6.98059C12.2841 5.28818 14.5787 4.33612 16.9721 4.33325L25.1242 4.33325C25.4185 4.33325 25.7092 4.35672 25.9999 4.37659V16.9721C25.9999 18.4087 26.5706 19.7865 27.5864 20.8023C28.6022 21.8181 29.98 22.3888 31.4166 22.3888H44.0121C44.032 22.6795 44.0554 22.9702 44.0554 23.2645ZM29.611 38.6388C29.611 38.1599 29.4208 37.7007 29.0822 37.3621C28.7436 37.0235 28.2843 36.8333 27.8054 36.8333H18.7777C18.2988 36.8333 17.8396 37.0235 17.5009 37.3621C17.1623 37.7007 16.9721 38.1599 16.9721 38.6388C16.9721 39.1177 17.1623 39.5769 17.5009 39.9155C17.8396 40.2541 18.2988 40.4444 18.7777 40.4444H27.8054C28.2843 40.4444 28.7436 40.2541 29.0822 39.9155C29.4208 39.5769 29.611 39.1177 29.611 38.6388ZM35.0277 31.4166C35.0277 30.9377 34.8374 30.4785 34.4988 30.1399C34.1602 29.8013 33.701 29.611 33.2221 29.611H18.7777C18.2988 29.611 17.8396 29.8013 17.5009 30.1399C17.1623 30.4785 16.9721 30.9377 16.9721 31.4166C16.9721 31.8954 17.1623 32.3547 17.5009 32.6933C17.8396 33.0319 18.2988 33.2221 18.7777 33.2221H33.2221C33.701 33.2221 34.1602 33.0319 34.4988 32.6933C34.8374 32.3547 35.0277 31.8954 35.0277 31.4166Z" fill="#6C5DCE"/>
</g>
<defs>
<clipPath id="clip0_65_141">
<rect width="43.3333" height="43.3333" fill="white" transform="translate(4.33331 4.33337)"/>
</clipPath>
</defs>
</svg>
