<svg width="24" height="24" viewBox="0 0 24 24" fill="none" xmlns="http://www.w3.org/2000/svg">
<path d="M15.5448 4.27192L15.7886 3.72619C16.066 3.10764 16.7909 2.82946 17.4095 3.10601C18.028 3.38255 18.3062 4.10828 18.0305 4.72683L17.7866 5.27256C17.5093 5.89684 16.7696 6.16684 16.1658 5.89275C15.5465 5.6162 15.2691 4.89047 15.5448 4.27192ZM18.496 7.95784C18.9755 8.4373 19.7519 8.4373 20.2314 7.95784L20.6405 7.54875C21.1199 7.07011 21.1199 6.29202 20.6405 5.81338C20.161 5.33393 19.3846 5.33393 18.9051 5.81338L18.496 6.22247C18.0166 6.70111 18.0166 7.47921 18.496 7.95784ZM18.6016 17.1739C17.3039 17.0528 15.1063 16.9088 12.0004 16.9088C8.89461 16.9088 6.69697 17.0528 5.39851 17.1739C4.04114 17.3015 3.01023 18.4028 3.00041 19.7724C3.00041 20.0539 3.0315 20.5383 3.86032 20.6643C5.28069 20.814 7.49797 20.9997 12.0004 20.9997C16.5029 20.9997 18.7726 20.8353 20.1929 20.6847C20.9587 20.5693 21.0005 20.0531 21.0005 19.7724C20.9907 18.4388 19.9606 17.3015 18.6016 17.1739ZM3.76868 7.95866C4.24814 8.43812 5.0246 8.43812 5.50405 7.95866C5.98351 7.48002 5.98351 6.70193 5.50405 6.22329L5.09496 5.8142C4.61551 5.33474 3.83905 5.33474 3.35959 5.8142C2.88014 6.29284 2.88014 7.07093 3.35959 7.54957L3.76868 7.95866ZM6.21342 5.27338C6.49079 5.89847 7.23043 6.16766 7.83425 5.89356C8.45361 5.61702 8.73098 4.89129 8.45525 4.27274L8.21143 3.72701C7.93406 3.10846 7.20833 2.83028 6.5906 3.10683C5.97124 3.38337 5.69387 4.1091 5.9696 4.72765L6.21342 5.27338ZM11.9996 6.27238C16.5258 6.27238 18.5451 8.29085 18.5451 12.8179V15.5269C17.1926 15.4066 15.0171 15.2724 11.9996 15.2724C8.98216 15.2724 6.80742 15.4066 5.45415 15.5269V12.8179C5.45415 8.29085 7.47343 6.27238 11.9996 6.27238ZM8.69579 11.9678C8.69579 12.4194 9.06152 12.786 9.51398 12.786C9.96644 12.786 10.3322 12.4194 10.3322 11.9678C10.3322 11.2494 10.4312 11.1496 11.1503 11.1496C11.6028 11.1496 11.9685 10.783 11.9685 10.3314C11.9685 9.87976 11.6028 9.51321 11.1503 9.51321C9.52216 9.51321 8.69579 10.3388 8.69579 11.9678Z" fill="white"/>
</svg>
