<svg width="38" height="12" viewBox="0 0 38 12" fill="none" xmlns="http://www.w3.org/2000/svg">
<path d="M0.75 4.77295C0.335786 4.77295 0 5.10874 0 5.52295C0 5.93716 0.335786 6.27295 0.75 6.27295V5.52295V4.77295ZM37.2803 6.05328C37.5732 5.76039 37.5732 5.28551 37.2803 4.99262L32.5074 0.219648C32.2145 -0.073245 31.7396 -0.073245 31.4467 0.219648C31.1538 0.512542 31.1538 0.987415 31.4467 1.28031L35.6893 5.52295L31.4467 9.76559C31.1538 10.0585 31.1538 10.5334 31.4467 10.8263C31.7396 11.1191 32.2145 11.1191 32.5074 10.8263L37.2803 6.05328ZM0.75 5.52295V6.27295H36.75V5.52295V4.77295H0.75V5.52295Z" fill="#483F84"/>
</svg>
