<svg width="24" height="24" viewBox="0 0 24 24" fill="none" xmlns="http://www.w3.org/2000/svg">
<g clip-path="url(#clip0_85_88)">
<path d="M20.1723 4.38134C20.089 4.11051 19.874 3.89967 19.6007 3.82301C19.4573 3.78217 16.0407 2.83301 11.9998 2.83301C7.95898 2.83301 4.54398 3.78217 4.40065 3.82301C4.12648 3.90051 3.91065 4.11217 3.82815 4.38467C3.78732 4.51884 2.83398 7.72384 2.83398 12.0005C2.83398 16.313 3.78898 19.4855 3.82898 19.6188C3.91232 19.8897 4.12732 20.1005 4.40065 20.1772C4.54398 20.218 7.96065 21.1672 12.0015 21.1672C16.0423 21.1672 19.4582 20.218 19.6015 20.1772C19.8757 20.0997 20.0915 19.888 20.174 19.6155C20.2148 19.4813 21.1682 16.2763 21.1682 11.9997C21.1682 7.68717 20.2123 4.51467 20.1723 4.38134ZM7.05648 18.7405H7.04815C6.35732 18.7405 5.79815 18.1813 5.79815 17.4905C5.79815 16.7997 6.35732 16.2405 7.04815 16.2405C7.73898 16.2405 8.30232 16.7997 8.30232 17.4905C8.30232 18.1813 7.74648 18.7405 7.05648 18.7405ZM7.05648 15.1172H7.04815C6.35732 15.1172 5.79815 14.558 5.79815 13.8672C5.79815 13.1763 6.35732 12.6172 7.04815 12.6172C7.73898 12.6172 8.30232 13.1763 8.30232 13.8672C8.30232 14.558 7.74648 15.1172 7.05648 15.1172ZM10.3565 18.7405H10.3482C9.65732 18.7405 9.09815 18.1813 9.09815 17.4905C9.09815 16.7997 9.65732 16.2405 10.3482 16.2405C11.039 16.2405 11.6023 16.7997 11.6023 17.4905C11.6023 18.1813 11.0465 18.7405 10.3565 18.7405ZM10.3565 15.1172H10.3482C9.65732 15.1172 9.09815 14.558 9.09815 13.8672C9.09815 13.1763 9.65732 12.6172 10.3482 12.6172C11.039 12.6172 11.6023 13.1763 11.6023 13.8672C11.6023 14.558 11.0465 15.1172 10.3565 15.1172ZM7.05065 10.7588C6.82065 10.7588 6.60065 10.6638 6.44315 10.4963C6.28565 10.328 6.20398 10.103 6.21898 9.87301C6.28482 8.84301 6.40898 7.80717 6.58898 6.79551C6.64982 6.45134 6.91898 6.18217 7.26315 6.12134C8.39648 5.91967 10.139 5.67967 11.9998 5.67967C13.8607 5.67967 15.604 5.92051 16.739 6.12217C17.0832 6.18301 17.3523 6.45217 17.414 6.79634C17.594 7.80634 17.7173 8.84218 17.7823 9.87384C17.7965 10.103 17.7157 10.3288 17.5582 10.4963C17.4007 10.6638 17.1807 10.7588 16.9507 10.7588H7.05065ZM12.3982 13.8672C12.3982 13.1763 12.9573 12.6172 13.6482 12.6172C14.339 12.6172 14.9023 13.1763 14.9023 13.8672C14.9023 14.558 14.3465 15.1172 13.6565 15.1172H13.6482C12.9573 15.1172 12.3982 14.558 12.3982 13.8672ZM16.9498 18.3205H13.6507C13.1907 18.3205 12.8173 17.9472 12.8173 17.4872C12.8173 17.0272 13.1907 16.6538 13.6507 16.6538H16.9498C17.4098 16.6538 17.7832 17.0272 17.7832 17.4872C17.7832 17.9472 17.4098 18.3205 16.9498 18.3205ZM16.9565 15.1172H16.9482C16.2573 15.1172 15.6982 14.558 15.6982 13.8672C15.6982 13.1763 16.2573 12.6172 16.9482 12.6172C17.639 12.6172 18.2023 13.1763 18.2023 13.8672C18.2023 14.558 17.6465 15.1172 16.9565 15.1172Z" fill="white"/>
</g>
<defs>
<clipPath id="clip0_85_88">
<rect width="20" height="20" fill="white" transform="translate(2 2)"/>
</clipPath>
</defs>
</svg>
