<svg width="21" height="21" viewBox="0 0 21 21" fill="none" xmlns="http://www.w3.org/2000/svg">
<path d="M19.0312 14.4375C19.0312 17.2162 16.7787 19.4687 14 19.4687H7C4.22132 19.4687 1.96875 17.2162 1.96875 14.4375V8.09373H19.0312V14.4375ZM5.6875 13.7812C5.32506 13.7812 5.03125 14.075 5.03125 14.4375C5.03125 14.7999 5.32506 15.0937 5.6875 15.0937H6.5625C6.92494 15.0937 7.21875 14.7999 7.21875 14.4375C7.21875 14.075 6.92494 13.7812 6.5625 13.7812H5.6875ZM10.0625 13.7812C9.70006 13.7812 9.40625 14.075 9.40625 14.4375C9.40625 14.7999 9.70006 15.0937 10.0625 15.0937H10.9375C11.2999 15.0937 11.5937 14.7999 11.5938 14.4375C11.5938 14.075 11.2999 13.7812 10.9375 13.7812H10.0625ZM14.4375 13.7812C14.0751 13.7812 13.7812 14.075 13.7812 14.4375C13.7813 14.7999 14.0751 15.0937 14.4375 15.0937H15.3125C15.6749 15.0937 15.9687 14.7999 15.9688 14.4375C15.9688 14.075 15.6749 13.7812 15.3125 13.7812H14.4375ZM5.6875 10.2812C5.32506 10.2812 5.03125 10.575 5.03125 10.9375C5.03125 11.2999 5.32506 11.5937 5.6875 11.5937H6.5625C6.92494 11.5937 7.21875 11.2999 7.21875 10.9375C7.21875 10.575 6.92494 10.2812 6.5625 10.2812H5.6875ZM10.0625 10.2812C9.70006 10.2812 9.40625 10.575 9.40625 10.9375C9.40625 11.2999 9.70006 11.5937 10.0625 11.5937H10.9375C11.2999 11.5937 11.5937 11.2999 11.5938 10.9375C11.5938 10.575 11.2999 10.2812 10.9375 10.2812H10.0625ZM14.4375 10.2812C14.0751 10.2812 13.7812 10.575 13.7812 10.9375C13.7813 11.2999 14.0751 11.5937 14.4375 11.5937H15.3125C15.6749 11.5937 15.9687 11.2999 15.9688 10.9375C15.9688 10.575 15.6749 10.2812 15.3125 10.2812H14.4375ZM13.7812 4.37498C13.7812 4.73741 14.0751 5.03123 14.4375 5.03123C14.7999 5.03123 15.0938 4.73741 15.0938 4.37498V2.52634C17.1375 2.97963 18.7129 4.67554 18.9873 6.78123H2.0127C2.28707 4.67554 3.8625 2.97963 5.90625 2.52634V4.37498C5.90625 4.73741 6.20006 5.03123 6.5625 5.03123C6.92494 5.03123 7.21875 4.73741 7.21875 4.37498V2.40623H13.7812V4.37498ZM6.5625 1.09373C6.92494 1.09373 7.21875 1.38754 7.21875 1.74998V2.40623H7C6.62428 2.40623 6.2584 2.44824 5.90625 2.52634V1.74998C5.90625 1.38754 6.20006 1.09373 6.5625 1.09373ZM14.4375 1.09373C14.7999 1.09373 15.0938 1.38754 15.0938 1.74998V2.52634C14.7416 2.44824 14.3757 2.40623 14 2.40623H13.7812V1.74998C13.7812 1.38754 14.0751 1.09373 14.4375 1.09373Z" fill="white"/>
</svg>
