<svg width="60" height="60" viewBox="0 0 60 60" fill="none" xmlns="http://www.w3.org/2000/svg">
<g clip-path="url(#clip0_251_282)">
<path d="M38.9143 16.3705C37.307 16.6371 34.4378 17.117 32.5344 17.4302C18.4212 19.763 17.9559 19.843 17.5682 20.0296C16.8421 20.3762 16.3275 20.9627 16.109 21.6959C15.968 22.1557 15.9891 22.7623 16.1795 23.7154L16.2993 24.3352L27.4517 24.3552C37.9696 24.3685 38.6182 24.3819 39.02 24.4952C40.3524 24.8751 41.5226 25.7948 42.1077 26.9346C42.6435 27.9743 42.6506 28.041 42.6506 32.4332C42.6506 35.7857 42.6646 36.2656 42.7563 36.2656C43.0594 36.2656 45.7594 35.7724 46.0837 35.6524C46.6265 35.4592 47.2962 34.8593 47.557 34.3194C47.9518 33.4996 47.973 33.6396 46.4996 25.7349C45.7735 21.8691 45.132 18.4633 45.0756 18.17C44.8712 17.1903 44.2931 16.4571 43.4401 16.0839C42.7281 15.7773 42.2769 15.804 38.9143 16.3705Z" fill="#6C5DCE"/>
<path d="M13.7613 26.3745C12.7179 26.6344 11.8156 27.6008 11.7169 28.5473L11.6816 28.8672H26.1544H40.6201L40.5707 28.5473C40.465 27.8074 39.8164 26.9343 39.1397 26.6077C38.4065 26.2545 38.9846 26.2678 26.0839 26.2745C15.9537 26.2745 14.0785 26.2878 13.7613 26.3745Z" fill="#6C5DCE"/>
<path d="M11.7031 33.0995V35.3989H26.1547H40.6063V33.0995V30.8H26.1547H11.7031V33.0995Z" fill="#6C5DCE"/>
<path d="M11.7165 40.7775L11.7376 44.23L11.942 44.6299C12.2099 45.1431 12.7457 45.6496 13.2885 45.9029L13.7115 46.0962H26.1187H38.5259L38.9842 45.8896C39.4776 45.663 39.957 45.2564 40.2178 44.8298C40.5844 44.2433 40.6056 44.0234 40.6056 40.5509V37.3317H26.154H11.6953L11.7165 40.7775ZM20.5707 41.8972C21.2475 42.2838 21.2475 43.1769 20.5707 43.5635C20.3522 43.6901 20.2112 43.6968 17.6945 43.6968C15.1778 43.6968 15.0368 43.6901 14.8183 43.5635C14.0146 43.1036 14.1979 42.0039 15.1143 41.7906C15.2342 41.7639 16.4608 41.7439 17.8355 41.7506C20.2041 41.7639 20.3522 41.7706 20.5707 41.8972Z" fill="#6C5DCE"/>
</g>
<defs>
<clipPath id="clip0_251_282">
<rect width="36.0938" height="34.125" fill="white" transform="translate(11.7031 13.9375)"/>
</clipPath>
</defs>
</svg>
