<svg width="60" height="60" viewBox="0 0 60 60" fill="none" xmlns="http://www.w3.org/2000/svg">
<g clip-path="url(#clip0_251_271)">
<path d="M15.83 46.9789C13.6885 46.6936 11.969 45.0501 11.7499 42.8691L11.7597 19.3956C11.8443 17.7824 13.8822 15.4873 15.5137 15.4873H26.2354L21.4022 18.4227C19.801 18.5453 18.0821 18.3192 16.495 18.4375C14.0957 18.6157 14.3338 21.2948 16.2132 21.4659L42.0889 21.4638C43.1308 21.4575 44.7264 22.8636 44.7264 23.8885V27.4382C41.5522 27.4305 38.4406 27.0613 36.0807 29.584C32.6212 33.2809 34.3499 39.4068 39.2275 40.7036C39.4705 40.7685 40.0496 40.9347 40.2623 40.9347H44.7271V44.5549C44.7271 45.62 43.121 46.8535 42.1256 46.9803H15.83V46.9789Z" fill="#6C5DCE"/>
<path d="M47.7501 30.5295V37.9107C47.5 38.308 47.3161 38.6278 46.8005 38.6834C44.4357 38.401 40.6831 39.3189 38.643 38.053C34.8784 35.717 36.3578 30.0068 40.7514 29.6834C42.6583 29.5433 44.735 29.794 46.6603 29.6863C47.2105 29.7483 47.5268 30.0498 47.7501 30.5302V30.5295ZM40.7711 32.726C39.1178 32.9796 39.1255 35.436 40.6901 35.655C43.1677 36.0009 42.9267 32.3956 40.7711 32.726Z" fill="#6C5DCE"/>
<path d="M37.6257 19.9854H23.2127L32.8671 14.1378C33.4455 13.7779 34.0781 13.923 34.45 14.4788L37.6257 19.9847V19.9854Z" fill="#6C5DCE"/>
<path d="M40.2271 19.8097C40.2271 19.8273 40.3609 19.9034 40.2616 19.9154H40.1581L37.6953 15.5225C38.6188 15.5556 39.6037 16.3431 39.9812 17.1737C40.0193 17.2575 40.2271 17.8063 40.2271 17.8415C40.2271 18.4952 40.2045 19.1567 40.2271 19.8097Z" fill="#6C5DCE"/>
</g>
<defs>
<clipPath id="clip0_251_271">
<rect width="36" height="33.0371" fill="white" transform="translate(11.75 13.9414)"/>
</clipPath>
</defs>
</svg>
