<svg width="52" height="52" viewBox="0 0 52 52" fill="none" xmlns="http://www.w3.org/2000/svg">
<g clip-path="url(#clip0_406_765)">
<path d="M33.8512 30.9161L19.7462 45.0211C18.0418 46.7255 15.7758 47.6644 13.3636 47.6644C10.9514 47.6644 8.68539 46.7255 6.98095 45.0211C3.46192 41.5003 3.46192 35.773 6.98095 32.254L21.0859 18.149L33.853 30.9161H33.8512ZM30.9858 4.40332L28.4328 6.95638L30.3539 8.87749L23.6372 15.5942L36.4043 28.3612L43.1228 21.6428L45.0439 23.5639L47.5969 21.0108L30.9858 4.40332ZM45.5512 45.5501C46.9162 44.1869 47.6673 42.3723 47.6673 40.444C47.6673 38.5157 46.9162 36.7011 45.5368 35.3235L40.4451 30.3419L35.339 35.3379C33.974 36.7011 33.2229 38.5157 33.2229 40.444C33.2229 42.3723 33.974 44.1869 35.339 45.5501C36.704 46.9151 38.5168 47.6662 40.4451 47.6662C42.3734 47.6662 44.1862 46.9151 45.5512 45.5501Z" fill="white"/>
</g>
<defs>
<clipPath id="clip0_406_765">
<rect width="43.3333" height="43.3333" fill="white" transform="translate(4.33398 4.33301)"/>
</clipPath>
</defs>
</svg>
