<svg width="60" height="60" viewBox="0 0 60 60" fill="none" xmlns="http://www.w3.org/2000/svg">
<g clip-path="url(#clip0_251_341)">
<path d="M19.1042 12.3379C19.3371 12.4598 19.9802 13.0026 19.9802 13.2521V14.882H25.075V13.2521C25.075 13.0018 25.7181 12.4598 25.951 12.3379H26.7472C26.9802 12.4598 27.6232 13.0026 27.6232 13.2521V14.882H32.7181V13.2521C32.7181 13.0018 33.3611 12.4598 33.5941 12.3379H34.3903C34.6233 12.4598 35.2663 13.0026 35.2663 13.2521V14.882C36.8173 15.0023 38.6842 14.4197 39.8019 15.7985C39.9822 16.0209 40.3612 16.731 40.3612 16.9893V19.9717H12.3379V16.9893C12.3379 16.6832 12.7583 15.9603 12.9769 15.7188C14.1457 14.4285 15.8922 15.0055 17.4327 14.882V13.2521C17.4327 13.0018 18.0758 12.4598 18.3087 12.3379H19.105H19.1042Z" fill="#6C5DCE"/>
<path d="M47.9999 40.6485C47.5851 41.2933 46.3301 42.7981 45.5626 42.8714C45.3448 42.8921 45.2267 42.8411 45.0329 42.7774C44.6196 42.6395 43.1181 41.1738 42.9809 40.7721C42.6953 39.9352 43.1907 39.3072 43.9422 39.0155C43.1716 37.0182 41.0206 36.0044 38.9838 36.7719C38.2036 37.066 37.4033 37.8773 36.5728 36.995C35.6362 36.0004 36.5601 35.0886 37.4752 34.6287C41.2129 32.7517 45.853 34.9467 46.5671 39.0593C47.2651 38.9597 47.7438 39.4156 47.9999 40.0133V40.6493V40.6485Z" fill="#6C5DCE"/>
<path d="M40.3588 22.5181V31.4247C37.3287 31.5323 33.1178 33.0841 33.7146 36.8364C32.8043 37.3784 31.7583 38.3165 31.0842 39.1374C30.2241 40.1855 29.9473 41.5922 30.4084 42.8762H14.4473C13.6399 42.8762 12.3379 41.5754 12.3379 40.7689V22.5181H40.3588ZM29.909 27.6261C29.6625 27.67 29.4351 27.8413 29.2524 28.0031L21.5742 35.6807C20.569 36.9177 22.1167 38.4201 23.3629 37.4676L31.1225 29.7119C31.9083 28.7794 31.1089 27.4101 29.909 27.6253V27.6261ZM22.3489 28.8966C20.4732 29.1715 21.2958 32.15 23.1148 31.2549C24.3674 30.6388 23.7259 28.6941 22.3489 28.8966ZM29.9904 33.9863C28.1147 34.2613 28.9372 37.2397 30.7563 36.3447C32.0088 35.7286 31.3674 33.7838 29.9904 33.9863Z" fill="#6C5DCE"/>
<path d="M36.7765 42.8757C37.473 44.8387 39.5553 45.8342 41.5491 45.2173C42.4067 44.9519 42.9237 44.1812 43.8923 44.6331C44.5321 44.9312 44.7284 45.6246 44.5161 46.2733C44.3063 46.9149 42.7921 47.5717 42.1698 47.747C38.5277 48.772 34.9416 46.5905 34.1118 42.953C34.0113 42.8199 33.7297 42.8988 33.5701 42.8573C32.8968 42.6836 32.5992 41.9224 32.7508 41.2792C32.8361 40.9166 34.1342 39.5736 34.4724 39.3417C35.0612 38.9384 35.583 38.9886 36.1407 39.4142C36.4965 39.6852 37.6725 40.8943 37.773 41.2824C37.9637 42.0205 37.493 42.7027 36.7757 42.8765L36.7765 42.8757Z" fill="#6C5DCE"/>
</g>
<defs>
<clipPath id="clip0_251_341">
<rect width="35.6624" height="35.6624" fill="white" transform="translate(12.3379 12.3379)"/>
</clipPath>
</defs>
</svg>
