<svg width="52" height="52" viewBox="0 0 52 52" fill="none" xmlns="http://www.w3.org/2000/svg">
<path d="M45 47.0833C45 48.1432 44.1507 49 43.1 49H8.9C7.8493 49 7 48.1432 7 47.0833C7 40.3271 10.8798 34.4832 16.5 31.6542V38.0328C15.3695 38.696 14.6 39.9188 14.6 41.3352C14.6 43.4532 16.3005 45.1686 18.4 45.1686C20.4995 45.1686 22.2 43.4532 22.2 41.3352C22.2 39.9207 21.4305 38.6979 20.3 38.0328V30.278C21.5236 29.9963 22.7928 29.8333 24.1 29.8333H27.9C28.5422 29.8333 29.1749 29.8755 29.8 29.9464V37.8527C27.5941 38.6462 26 40.7545 26 43.25V45.1667C26 46.2266 26.8493 47.0833 27.9 47.0833C28.9507 47.0833 29.8 46.2266 29.8 45.1667V43.25C29.8 42.192 30.6512 41.3333 31.7 41.3333C32.7488 41.3333 33.6 42.192 33.6 43.25V45.1667C33.6 46.2266 34.4493 47.0833 35.5 47.0833C36.5507 47.0833 37.4 46.2266 37.4 45.1667V43.25C37.4 40.7545 35.8059 38.6462 33.6 37.8527V30.8396C40.231 33.2143 45 39.5892 45 47.0833ZM37.4 14.5C37.4 8.15775 32.2871 3 26 3C19.7129 3 14.6 8.15775 14.6 14.5C14.6 20.8422 19.7129 26 26 26C32.2871 26 37.4 20.8422 37.4 14.5Z" fill="white"/>
</svg>
