<svg width="21" height="21" viewBox="0 0 21 21" fill="none" xmlns="http://www.w3.org/2000/svg">
<path d="M14.8748 2.84473C17.6533 2.84486 19.906 5.09738 19.906 7.87598V13.126C19.906 15.9046 17.6533 18.1571 14.8748 18.1572H6.12476C3.34607 18.1572 1.09351 15.9047 1.09351 13.126V7.87598C1.09351 5.09729 3.34607 2.84473 6.12476 2.84473H14.8748ZM16.2751 7.4834C16.0578 7.19358 15.6461 7.13445 15.3562 7.35156L11.156 10.502C10.7671 10.7936 10.2324 10.7936 9.84351 10.502L5.64331 7.35156C5.3534 7.13439 4.94176 7.1936 4.72437 7.4834C4.50718 7.77333 4.56636 8.18496 4.8562 8.40234L9.0564 11.5518C9.91188 12.1932 11.0877 12.1932 11.9431 11.5518L16.1433 8.40234C16.4331 8.18496 16.4923 7.7733 16.2751 7.4834Z" fill="white"/>
</svg>
