<svg width="24" height="24" viewBox="0 0 24 24" fill="none" xmlns="http://www.w3.org/2000/svg">
<path d="M11.9997 17.3496C11.8113 17.3497 11.6226 17.4034 11.4577 17.5098L7.11493 20.3096C6.34747 20.8044 5.37271 20.0967 5.60614 19.2139L6.92743 14.2178C7.02778 13.8382 6.89676 13.4355 6.59247 13.1875L2.58759 9.92188C1.87975 9.34489 2.25196 8.19918 3.16376 8.14844L8.32294 7.86133C8.7148 7.83952 9.05791 7.59047 9.19989 7.22461L11.0681 2.40625C11.233 1.98063 11.6161 1.7677 11.9997 1.76758V17.3496Z" fill="#6C5DCE"/>
<path d="M11.7666 2.67676C11.8491 2.46388 12.1509 2.46389 12.2334 2.67676L14.1006 7.49512C14.3488 8.13564 14.9489 8.57205 15.6348 8.61035L20.7949 8.89746C21.0228 8.9102 21.1154 9.19659 20.9385 9.34082L16.9336 12.6055C16.401 13.0396 16.172 13.7459 16.3477 14.4102L17.6689 19.4053C17.7273 19.626 17.4829 19.8034 17.291 19.6797L12.9482 16.8789C12.3709 16.5067 11.6291 16.5067 11.0518 16.8789L6.70898 19.6797C6.51711 19.8034 6.27268 19.626 6.33105 19.4053L7.65234 14.4102C7.82802 13.7459 7.59896 13.0396 7.06641 12.6055L3.06152 9.34082C2.88458 9.19659 2.97718 8.9102 3.20508 8.89746L8.36523 8.61035C9.05109 8.57205 9.65116 8.13564 9.89941 7.49512L11.7666 2.67676Z" stroke="#6C5DCE" stroke-width="1.5"/>
</svg>
