<svg width="52" height="52" viewBox="0 0 52 52" fill="none" xmlns="http://www.w3.org/2000/svg">
<path d="M36.0793 8C34.0157 8.03155 31.9971 8.59776 30.2274 9.64146C28.4576 10.6852 26.9994 12.1694 26 13.9442C25.0006 12.1694 23.5424 10.6852 21.7726 9.64146C20.0029 8.59776 17.9843 8.03155 15.9207 8C12.6311 8.14048 9.53177 9.55497 7.29981 11.9344C5.06785 14.3139 3.88471 17.4649 4.00887 20.6991C4.00887 28.8895 12.7797 37.8347 20.1357 43.8997C21.7781 45.2563 23.8547 46 26 46C28.1453 46 30.2219 45.2563 31.8643 43.8997C39.2203 37.8347 47.9911 28.8895 47.9911 20.6991C48.1153 17.4649 46.9321 14.3139 44.7002 11.9344C42.4682 9.55497 39.3689 8.14048 36.0793 8Z" fill="white"/>
</svg>
