<svg width="52" height="52" viewBox="0 0 52 52" fill="none" xmlns="http://www.w3.org/2000/svg">
<path d="M26 16.8253V4.84281C27.6738 5.47674 29.2138 6.4533 30.5192 7.75599L36.9065 14.143C38.2118 15.4457 39.189 16.9847 39.8233 18.6575H27.8333C26.8213 18.6575 26 17.8349 26 16.8253ZM24.4435 38.8116H13.1667C12.1528 38.8116 11.3333 37.9926 11.3333 36.9794C11.3333 35.9662 12.1528 35.1472 13.1667 35.1472H24.1667V31.4828H13.1667C12.1528 31.4828 11.3333 30.6638 11.3333 29.6506C11.3333 28.6374 12.1528 27.8184 13.1667 27.8184H24.229C24.5333 25.4769 25.9505 23.434 28.0222 22.3219H27.8333C24.801 22.3219 22.3333 19.8558 22.3333 16.8253V4.04397C22.0382 4.02382 21.743 4 21.4442 4H13.1667C8.11217 4 4 8.1096 4 13.1609V38.8116C4 43.8629 8.11217 47.9725 13.1667 47.9725H30.5448C27.9947 45.9168 25.3015 42.8735 24.4453 38.8116H24.4435ZM38.9855 47.7123C41.0993 46.8622 48 43.513 48 36.1293V28.7694C48 27.19 46.9898 25.792 45.4883 25.2955L38.4942 22.9778C38.122 22.8532 37.7132 22.8532 37.341 22.9778L30.3468 25.2955C28.8453 25.792 27.8352 27.19 27.8352 28.7694V36.1293C27.8352 42.6702 34.646 46.5782 36.7268 47.6171C36.7268 47.6171 37.3227 48 37.9203 48C38.518 48 38.9873 47.7142 38.9873 47.7142L38.9855 47.7123Z" fill="white"/>
</svg>
