<svg width="20" height="19" viewBox="0 0 20 19" fill="none" xmlns="http://www.w3.org/2000/svg">
<path d="M15.1637 11.0439C16.2795 11.1607 17.3848 11.4126 18.4554 11.7993C19.3816 12.1339 19.9999 13.0209 20 14.0156V15.0775C19.9999 16.4684 18.7818 17.5365 17.4205 17.3398L17.1078 17.2951C17.0451 17.286 16.9824 17.2777 16.9197 17.2692C17.0043 16.9152 17.0512 16.5444 17.0512 16.1613V14.8436C17.0512 13.3126 16.328 11.9102 15.1637 11.0439Z" fill="#6C5DCE"/>
<path d="M13.7122 2.06009C15.863 2.06009 17.6067 3.82365 17.6067 5.99905C17.6066 8.17439 15.8629 9.93802 13.7122 9.93802C13.1772 9.938 12.6676 9.8284 12.2035 9.63094C13.3934 8.42382 14.1318 6.74639 14.1319 4.89057C14.1319 3.88011 13.9122 2.92247 13.521 2.06462C13.5843 2.06152 13.6481 2.06009 13.7122 2.06009Z" fill="#6C5DCE"/>
<path fill-rule="evenodd" clip-rule="evenodd" d="M12.4172 4.89035C12.4172 2.18949 10.2909 0 7.668 0C5.0451 0 2.91882 2.18949 2.91882 4.89035C2.91882 7.59122 5.0451 9.78071 7.668 9.78071C10.2909 9.78071 12.4172 7.59122 12.4172 4.89035Z" fill="#6C5DCE"/>
<path fill-rule="evenodd" clip-rule="evenodd" d="M1.88356 12.0915C5.62416 10.7158 9.71185 10.7158 13.4525 12.0915C14.582 12.5069 15.336 13.6086 15.336 14.8437V16.1617C15.336 17.8886 13.8506 19.2152 12.1904 18.9709L11.8091 18.9149C9.06231 18.5108 6.2737 18.5108 3.52693 18.9149L3.14561 18.9709C1.48538 19.2152 0 17.8886 0 16.1617V14.8437C0 13.6086 0.754007 12.5069 1.88356 12.0915Z" fill="#6C5DCE"/>
</svg>
