<svg width="24" height="24" viewBox="0 0 24 24" fill="none" xmlns="http://www.w3.org/2000/svg">
<path d="M19.8467 21.1314C17.6753 23.3029 12.1142 21.2625 7.42586 16.5741C2.73747 11.8858 0.697101 6.32475 2.86856 4.15328L4.2983 2.72354C5.28533 1.73651 6.91171 1.7626 7.93093 2.78181L10.1455 4.99636C11.1647 6.01557 11.1908 7.64196 10.2037 8.62899L9.89666 8.93608C9.36374 9.46899 9.31161 10.3287 9.80678 10.9287C10.2844 11.5075 10.7993 12.0841 11.3576 12.6424C11.9159 13.2007 12.4925 13.7156 13.0713 14.1932C13.6713 14.6884 14.531 14.6363 15.0639 14.1033L15.371 13.7963C16.358 12.8092 17.9844 12.8353 19.0036 13.8545L21.2182 16.0691C22.2374 17.0883 22.2635 18.7147 21.2765 19.7017L19.8467 21.1314Z" fill="white"/>
</svg>
