<svg width="21" height="21" viewBox="0 0 21 21" fill="none" xmlns="http://www.w3.org/2000/svg">
<path d="M10.5 1.53125C14.7218 1.53125 18.1561 4.91979 18.1562 9.11426C18.1562 11.7231 16.6348 14.2986 15.0225 16.1729C14.2066 17.1212 13.34 17.9218 12.5762 18.4912C12.195 18.7754 11.8288 19.0102 11.498 19.1768C11.1879 19.3329 10.8336 19.4688 10.5 19.4688C10.1664 19.4688 9.81209 19.3329 9.50195 19.1768C9.17122 19.0102 8.80503 18.7754 8.42383 18.4912C7.65998 17.9218 6.79344 17.1212 5.97754 16.1729C4.36516 14.2986 2.84375 11.7231 2.84375 9.11426C2.84393 4.91979 6.27818 1.53125 10.5 1.53125ZM10.5 6.125C9.05025 6.125 7.875 7.30025 7.875 8.75C7.875 10.1997 9.05025 11.375 10.5 11.375C11.9497 11.375 13.125 10.1997 13.125 8.75C13.125 7.30025 11.9497 6.125 10.5 6.125Z" fill="#6C5DCE"/>
</svg>
