<svg width="25" height="25" viewBox="0 0 25 25" fill="none" xmlns="http://www.w3.org/2000/svg">
<path d="M17.7109 3.38647C21.0188 3.38647 23.7 6.06793 23.7002 9.37573V15.6257C23.7002 18.9337 21.0189 21.616 17.7109 21.616H7.29395C3.98614 21.6158 1.30469 18.9336 1.30469 15.6257V9.37573C1.30486 6.06804 3.98625 3.38665 7.29395 3.38647H17.7109ZM19.375 8.90894C19.1323 8.58538 18.6868 8.50352 18.3477 8.70776L18.2812 8.75269L13.2812 12.5027C12.8184 12.8497 12.1816 12.8497 11.7188 12.5027L6.71875 8.75269C6.37357 8.4938 5.88388 8.56376 5.625 8.90894C5.36636 9.2541 5.43616 9.74387 5.78125 10.0027L10.7812 13.7527C11.7997 14.5164 13.2003 14.5164 14.2188 13.7527L19.2188 10.0027L19.2803 9.9519C19.5715 9.68362 19.6175 9.23258 19.375 8.90894Z" fill="#6C5DCE"/>
</svg>
