<svg width="60" height="60" viewBox="0 0 60 60" fill="none" xmlns="http://www.w3.org/2000/svg">
<path d="M14.9876 13.7754C14.5839 13.8972 14.2268 14.1715 14.0094 14.5218L13.7998 14.8799V21.0498V27.2197L13.9939 27.5625C14.1026 27.7453 14.3433 28.0043 14.5218 28.1338L14.8634 28.3623L21.0821 28.3851C25.4686 28.4004 27.394 28.3851 27.6036 28.3242C27.7667 28.2785 28.0384 28.1185 28.2014 27.9738C28.7759 27.4635 28.7526 27.7986 28.7293 20.9203L28.7061 14.7808L28.4731 14.4457C28.3412 14.2705 28.0772 14.0343 27.8909 13.9277L27.5415 13.7373L21.3694 13.722C17.9767 13.7144 15.1041 13.7373 14.9876 13.7754ZM22.5417 18.7342C22.9454 18.856 23.3802 19.2217 23.551 19.5949C23.6674 19.8539 23.6985 20.0976 23.6985 21.0498C23.6985 22.3142 23.6208 22.6113 23.1861 23.0074C22.7746 23.3883 22.4874 23.4492 21.2374 23.4492C19.9176 23.4492 19.6226 23.3654 19.2188 22.8779C18.8617 22.459 18.7918 22.0933 18.8229 20.8898C18.8462 19.8996 18.8617 19.8082 19.0558 19.473C19.2732 19.1226 19.6303 18.8484 20.034 18.7265C20.3523 18.6275 22.2079 18.6351 22.5417 18.7342Z" fill="#6C5DCE"/>
<path d="M33.1547 13.8058C32.7121 13.9582 32.4947 14.1258 32.2541 14.4761L32.0444 14.7961L32.0212 20.9279C31.9979 27.791 31.9746 27.4635 32.5491 27.9738C32.7121 28.1185 32.9839 28.2785 33.1469 28.3242C33.3565 28.3851 35.2819 28.4004 39.6684 28.3851L45.8871 28.3623L46.2287 28.1338C46.4072 28.0043 46.6479 27.7453 46.7566 27.5625L46.9507 27.2197V21.0498V14.8799L46.7333 14.5218C46.5936 14.2857 46.3917 14.0877 46.151 13.9506L45.7861 13.7373L39.614 13.722C34.5987 13.7068 33.3876 13.722 33.1547 13.8058ZM41.1047 18.9017C41.3453 19.0388 41.5472 19.2369 41.6869 19.473C41.8888 19.8082 41.9043 19.892 41.9276 20.8898C41.9587 22.0933 41.8888 22.459 41.5317 22.8779C41.1279 23.3654 40.8329 23.4492 39.5131 23.4492C38.2632 23.4492 37.9759 23.3883 37.5644 23.0074C37.1297 22.6113 37.052 22.3142 37.052 21.0498C37.052 19.7396 37.1452 19.4349 37.6265 19.0617C38.0923 18.6961 38.3097 18.6504 39.5752 18.6732C40.6932 18.6885 40.7553 18.6961 41.1047 18.9017Z" fill="#6C5DCE"/>
<path d="M14.8479 31.6834C14.5063 31.8205 14.1492 32.1328 13.9706 32.4604L13.7998 32.7803V38.9502V45.1201L14.0172 45.4781C14.1569 45.7143 14.3588 45.9123 14.5995 46.0494L14.9644 46.2627H21.2529H27.5415L27.8909 46.0723C28.0772 45.9656 28.3412 45.7295 28.4731 45.5543L28.7061 45.2191L28.7293 39.1178C28.7449 34.8521 28.7293 32.925 28.6672 32.7193C28.5585 32.3461 28.1626 31.9119 27.7744 31.7443C27.4794 31.6148 27.099 31.5996 21.2529 31.6072C17.3633 31.6072 14.9721 31.6377 14.8479 31.6834ZM22.728 36.6955C22.8988 36.7717 23.1317 36.9316 23.2482 37.0535C23.6364 37.4572 23.6985 37.7391 23.6985 38.9654C23.6985 40.2604 23.6131 40.5498 23.1162 40.9459C22.6892 41.2963 22.3166 41.3648 21.0899 41.3344C20.0729 41.3115 19.9875 41.2963 19.6459 41.0982C19.4052 40.9611 19.2033 40.7631 19.0636 40.527C18.8617 40.1918 18.8462 40.108 18.8229 39.1102C18.7918 37.9066 18.8617 37.541 19.2188 37.1221C19.6226 36.6346 19.9176 36.5508 21.2529 36.5508C22.2234 36.5508 22.4718 36.5813 22.728 36.6955Z" fill="#6C5DCE"/>
<path d="M32.976 31.7367C32.5878 31.9119 32.1919 32.3461 32.0832 32.7193C32.0288 32.9021 32.0056 33.4734 32.0211 34.2428L32.0444 35.4691L32.2773 35.8043C32.4093 35.9871 32.6732 36.2156 32.8596 36.3223C33.1779 36.4975 33.3098 36.5127 34.2803 36.5355L35.3439 36.566V38.3865C35.3439 40.4355 35.375 40.5803 35.9262 41.0297C36.3299 41.3572 36.6715 41.4258 37.8283 41.4258C38.9851 41.4258 39.3267 41.3572 39.7304 41.0297C40.2972 40.5727 40.3127 40.4736 40.3127 38.0895V35.9566L40.0642 35.591C39.9245 35.3854 39.6683 35.1416 39.4975 35.0502C39.218 34.8979 39.0783 34.875 38.1233 34.875H37.0675L37.0364 33.8238C37.0131 32.8793 36.9976 32.7498 36.819 32.4375C36.7103 32.2547 36.4774 31.9957 36.2911 31.8662L35.9495 31.6377L34.6219 31.6148C33.4574 31.5996 33.2477 31.6148 32.976 31.7367Z" fill="#6C5DCE"/>
<path d="M41.1896 31.79C40.9412 31.9119 40.7083 32.1023 40.5763 32.3004C40.3511 32.6127 40.3511 32.6203 40.3278 33.9686C40.2968 35.4996 40.3589 35.7129 40.8946 36.1547C41.2983 36.4822 41.6399 36.5508 42.7967 36.5508C43.9535 36.5508 44.2951 36.4822 44.6988 36.1547C45.2345 35.7129 45.2966 35.4996 45.2655 33.9686C45.2422 32.6203 45.2422 32.6127 45.0171 32.3004C44.8851 32.1023 44.6522 31.9119 44.4038 31.79C44.0311 31.6072 43.9379 31.5996 42.7967 31.5996C41.6554 31.5996 41.5623 31.6072 41.1896 31.79Z" fill="#6C5DCE"/>
<path d="M32.976 41.4867C32.5878 41.6619 32.1919 42.0961 32.0832 42.4693C32.0288 42.6521 32.0056 43.2234 32.0211 43.9928L32.0444 45.2191L32.2773 45.5543C32.4093 45.7371 32.6732 45.9656 32.8596 46.0723C33.1934 46.2551 33.2633 46.2627 34.5287 46.2627C35.965 46.2627 36.0892 46.2322 36.5395 45.798C36.9821 45.3562 37.0131 45.2344 37.0131 43.8252C37.0131 42.5836 37.0054 42.515 36.819 42.1875C36.7103 42.0047 36.4774 41.7457 36.2911 41.6162L35.9495 41.3877L34.6219 41.3648C33.4574 41.3496 33.2477 41.3648 32.976 41.4867Z" fill="#6C5DCE"/>
<path d="M41.1896 41.54C40.9412 41.6619 40.7083 41.8523 40.5763 42.0504C40.3511 42.3627 40.3511 42.3703 40.3278 43.7186C40.2968 45.2496 40.3589 45.4629 40.8946 45.9047C41.2983 46.2322 41.6399 46.3008 42.7967 46.3008C43.9535 46.3008 44.2951 46.2322 44.6988 45.9047C45.2345 45.4629 45.2966 45.2496 45.2655 43.7186C45.2422 42.3703 45.2422 42.3627 45.0171 42.0504C44.8851 41.8523 44.6522 41.6619 44.4038 41.54C44.0311 41.3572 43.9379 41.3496 42.7967 41.3496C41.6554 41.3496 41.5623 41.3572 41.1896 41.54Z" fill="#6C5DCE"/>
</svg>
