<svg width="60" height="60" viewBox="0 0 60 60" fill="none" xmlns="http://www.w3.org/2000/svg">
<path d="M47.4299 25.2544L43.2536 25.3007C38.0643 25.6724 37.1974 34.8611 41.9611 36.0404C45.0918 36.8154 48.2118 34.7733 47.4153 31.331C46.869 28.9704 44.0877 28.0876 42.075 29.2386C41.8756 29.3527 41.647 29.5825 41.473 29.661C41.4061 29.6912 41.4129 29.7 41.4246 29.6132C41.5658 28.5846 42.5597 27.6384 43.5976 27.5433C44.4449 27.4657 45.3904 27.6082 46.2479 27.5321L47.4295 25.2539L47.4299 25.2544ZM36.7303 30.4579L37.7633 28.5387C37.7604 28.4119 37.1803 28.1417 37.0479 28.0851C33.6895 26.6586 29.4321 29.3288 30.6693 33.1809C31.5718 35.9902 35.3333 36.5886 37.6651 35.2357L36.6409 33.3579C36.1606 33.535 35.6622 33.7276 35.1442 33.7696C32.2051 34.0076 32.1601 29.7229 35.1984 29.9785C35.7374 30.0239 36.2275 30.3189 36.7298 30.4584L36.7303 30.4579ZM56.9999 28.2246H48.9193C48.9139 28.2246 48.846 28.2924 48.846 28.2978V35.919H51.6288V30.5623H54.2166V35.8458C54.2166 35.8512 54.2845 35.919 54.2899 35.919H56.9999V28.2251V28.2246Z" fill="white"/>
<path d="M13.7902 15.0488C14.9776 17.3284 16.3546 19.5305 17.5009 21.8174C17.4642 23.2484 17.538 24.6774 17.5498 26.1026C17.562 27.5784 17.5498 29.0577 17.5498 30.534V30.7286C16.2798 29.9517 15.0113 29.1674 13.7413 28.391V15H13.7902V15.0488Z" fill="#F8B721"/>
<path d="M13.7413 28.3915C15.0113 29.1679 16.2797 29.9517 17.5497 30.7291C21.1485 32.9317 24.7419 35.1479 28.3397 37.352H21.0649C19.8986 36.6296 18.7205 35.9239 17.5497 35.2094C16.2876 34.4388 14.9971 33.6891 13.7413 32.9205C12.548 32.1899 11.3348 31.4188 10.1283 30.6804C9.00935 29.9961 7.92067 29.2484 6.75968 28.6353C5.51708 26.3747 4.19777 24.1483 3.00012 21.8662C6.58035 24.0405 10.1674 26.207 13.7413 28.3915Z" fill="#1E87C8"/>
<path d="M57.0004 28.2236V35.9175H54.2904C54.2851 35.9175 54.2171 35.8497 54.2171 35.8443V30.5608H51.6293V35.9175H48.8466V28.2963C48.8466 28.2909 48.9145 28.2231 48.9199 28.2231H57.0004V28.2236Z" fill="#6C5DCE"/>
<path d="M3.00012 21.8662C4.19777 24.1478 5.51708 26.3747 6.75968 28.6349V32.6766C5.5249 34.9421 4.20265 37.1671 3.00012 39.4458V21.8662Z" fill="#5C58A1"/>
<path d="M28.3399 37.3525L13.7903 46.2642L17.5498 39.4956C18.7411 38.8172 19.9246 38.1129 21.0651 37.353H28.3399V37.3525Z" fill="#0F8038"/>
<path d="M28.2426 23.8625L21.1633 23.96H21.0656L17.5015 21.8175C16.3546 19.53 14.9782 17.328 13.7903 15.0483C18.5984 17.9981 23.4628 20.8664 28.2421 23.8625H28.2426Z" fill="#EC7128"/>
<path d="M17.5498 35.2098V39.4949L13.7902 46.2636L13.7413 32.9209C14.9971 33.6896 16.2871 34.4392 17.5498 35.2098Z" fill="#65B134"/>
<path d="M36.73 30.4582C36.2276 30.3192 35.7375 30.0236 35.1986 29.9783C32.1603 29.7227 32.2052 34.0073 35.1443 33.7693C35.6623 33.7274 36.1607 33.5352 36.641 33.3577L37.6652 35.2354C35.3334 36.5884 31.5719 35.9899 30.6694 33.1807C29.4317 29.3286 33.6897 26.6583 37.0481 28.0849C37.1805 28.141 37.7605 28.4112 37.7634 28.5385L36.7304 30.4577L36.73 30.4582Z" fill="#6C5DCE"/>
<path d="M21.1628 23.9604C23.4486 23.9795 25.7369 23.9356 28.0232 23.9595C28.1058 23.9604 28.2402 23.9283 28.291 24.0092C24.8466 26.0938 21.4247 28.2183 17.9852 30.3116C17.8484 30.395 17.7086 30.4974 17.5498 30.535C17.5498 29.0586 17.562 27.5794 17.5498 26.1035L21.065 23.9609H21.1628V23.9604Z" fill="#D91353"/>
<path d="M13.7413 32.9203L3.00012 39.4456C4.20265 37.1669 5.5249 34.9419 6.75968 32.6769C7.91676 32.0838 8.9859 31.3089 10.1283 30.6802C11.3348 31.4186 12.548 32.1897 13.7413 32.9203Z" fill="#994C96"/>
<path d="M28.2424 23.8638C28.284 23.8901 28.3392 23.9096 28.389 23.913L28.2913 24.0096C28.2405 23.9291 28.1061 23.9608 28.0235 23.9599C25.7372 23.936 23.4489 23.9794 21.1631 23.9608L28.2424 23.8633V23.8638Z" fill="#EF8954"/>
<path fill-rule="evenodd" clip-rule="evenodd" d="M46.2481 27.5322C45.3907 27.6082 44.4449 27.4654 43.5977 27.543C42.56 27.6383 41.5661 28.5848 41.4249 29.6133C41.4132 29.7001 41.4068 29.6914 41.4737 29.6611C41.6476 29.5826 41.8759 29.3519 42.0753 29.2383C44.088 28.0873 46.8698 28.9705 47.4161 31.3311C48.2125 34.7734 45.0921 36.815 41.962 36.04C37.1984 34.8603 38.0649 25.6727 43.254 25.3008L47.4288 25.2549L46.2481 27.5322ZM43.5362 34.0557C45.306 33.8147 45.325 30.4721 42.9268 30.8174C41.1219 31.0774 41.3076 34.3589 43.5362 34.0557Z" fill="#6C5DCE"/>
</svg>
