<svg width="20" height="19" viewBox="0 0 20 19" fill="none" xmlns="http://www.w3.org/2000/svg">
<path d="M8.85011 0.638611C9.18013 -0.212878 10.3849 -0.212879 10.7149 0.63861L12.5825 5.45708C12.7244 5.82315 13.0673 6.07234 13.4593 6.09415L18.6191 6.38128C19.5309 6.43203 19.9032 7.57786 19.1953 8.15485L15.1898 11.42C14.8855 11.668 14.7545 12.0712 14.8549 12.4508L16.1762 17.4467C16.4097 18.3295 15.435 19.0377 14.6675 18.5428L10.3245 15.7423C9.9945 15.5295 9.57056 15.5295 9.24061 15.7423L4.89752 18.5428C4.13004 19.0377 3.15534 18.3295 3.38884 17.4467L4.7102 12.4508C4.81059 12.0712 4.67959 11.668 4.37527 11.42L0.369736 8.15485C-0.338097 7.57786 0.0342068 6.43203 0.946002 6.38128L6.10573 6.09415C6.49774 6.07234 6.84071 5.82315 6.98259 5.45708L8.85011 0.638611Z" fill="#6C5DCE"/>
</svg>
