<svg width="61" height="60" viewBox="0 0 61 60" fill="none" xmlns="http://www.w3.org/2000/svg">
<g clip-path="url(#clip0_251_293)">
<path d="M39.5201 12.0495C38.1276 12.2326 36.7208 12.7538 36.1537 13.296C35.7446 13.6904 35.6154 13.965 35.5723 14.5214C35.5436 14.9298 35.5651 15.0496 35.7231 15.3735C35.9456 15.8172 36.1681 16.0355 36.7351 16.3665C38.1922 17.2256 41.3648 17.5496 43.9918 17.1129C46.2959 16.7256 47.473 15.8876 47.473 14.627C47.473 13.4157 46.4394 12.627 44.243 12.1693C43.6903 12.0566 43.2238 12.0214 41.8026 12.0073C40.8336 11.9932 39.8072 12.0143 39.5201 12.0495Z" fill="#6C5DCE"/>
<path d="M22.4367 16.3026C20.2116 16.7744 18.4889 18.4082 17.886 20.5984C17.7496 21.1054 17.7353 21.3942 17.6994 23.4364L17.6707 25.7111L17.1539 25.2252C16.7088 24.7956 16.594 24.7252 16.2997 24.6829C15.8547 24.6196 15.3522 24.8519 15.1584 25.2111C15.0005 25.5069 14.9934 25.9928 15.1297 26.2534C15.1872 26.359 15.9193 27.1125 16.7663 27.9365C18.9339 30.0492 18.733 30.0492 20.9078 27.9365C21.7476 27.1125 22.4797 26.3449 22.5372 26.2182C22.9032 25.3872 22.1926 24.5139 21.2882 24.6829C21.0944 24.7181 20.8863 24.866 20.4628 25.2674L19.8958 25.8097L19.9245 23.6266C19.9604 21.1618 20.0106 20.9083 20.5418 20.0984C21.0227 19.3801 21.6687 18.873 22.4654 18.5773C22.8745 18.4294 23.0181 18.4223 26.1906 18.3801L29.4924 18.3449L29.7293 18.1829C30.0738 17.9364 30.1958 17.6547 30.1599 17.1758C30.124 16.7322 29.9733 16.4927 29.5857 16.2955C29.3058 16.1547 23.1042 16.1617 22.4367 16.3026Z" fill="#6C5DCE"/>
<path d="M35.5576 19.7113V21.324L35.7945 21.4649C36.139 21.6761 37.0506 22.0142 37.6894 22.1761C38.967 22.5001 39.6059 22.5635 41.5151 22.5635C43.1086 22.5635 43.4675 22.5423 44.2786 22.4015C45.348 22.2184 46.1232 21.993 46.92 21.6409L47.4727 21.3874V19.7395C47.4727 18.8311 47.4511 18.0987 47.4224 18.1127C45.9653 18.8381 44.8097 19.148 42.9004 19.3029C41.1634 19.4437 39.1465 19.2958 37.6607 18.9015C37.0003 18.7325 36.0744 18.3733 35.8088 18.1972C35.7299 18.1409 35.6437 18.0987 35.615 18.0987C35.5792 18.0987 35.5576 18.824 35.5576 19.7113Z" fill="#6C5DCE"/>
<path d="M35.5576 24.4506C35.5576 25.0422 35.5935 25.6478 35.6294 25.7887C35.7442 26.176 36.3328 26.7676 36.8999 27.0633C37.9693 27.6056 39.0747 27.8169 41.1204 27.8662C42.2616 27.8943 42.843 27.8732 43.4962 27.7887C45.4916 27.5352 46.8482 26.9084 47.286 26.0422C47.4655 25.6971 47.4727 25.6197 47.4727 24.5352V23.3873L46.8051 23.6971C45.5347 24.2887 44.0848 24.5774 42.0822 24.6267C39.5556 24.6971 37.5602 24.3661 36.0457 23.6197L35.5576 23.3802V24.4506Z" fill="#6C5DCE"/>
<path d="M41.0487 30.5917C40.7616 30.7255 37.8834 33.5706 37.7829 33.8241C37.4671 34.6621 38.2064 35.5002 39.0892 35.3171C39.2471 35.2819 39.5127 35.0847 39.886 34.7255L40.453 34.1903L40.4243 36.3734C40.3956 38.3664 40.374 38.5988 40.2377 39.0213C39.9362 39.9227 39.1466 40.8453 38.3356 41.2256C37.546 41.6059 37.3522 41.6199 34.0505 41.6199C31.2153 41.6199 30.9784 41.627 30.7487 41.7537C29.995 42.1411 29.9663 43.2256 30.6913 43.6622C30.921 43.8031 31.0215 43.8031 34.3735 43.789L37.8188 43.7678L38.5007 43.5425C40.0726 43.0214 41.2856 41.9932 41.989 40.5988C42.5633 39.4579 42.6063 39.1692 42.6494 36.5636L42.6781 34.2889L43.1949 34.7748C43.6327 35.1903 43.7619 35.2748 44.0347 35.3171C44.4438 35.3734 44.9032 35.2044 45.1113 34.9157C45.2836 34.6833 45.3626 34.2044 45.2908 33.8945C45.2262 33.648 42.2977 30.7325 41.9675 30.5917C41.6804 30.472 41.3287 30.472 41.0487 30.5917Z" fill="#6C5DCE"/>
<path d="M16.7232 32.2182C15.8404 32.3379 14.8714 32.6126 14.29 32.8943C13.3138 33.3661 12.876 33.9506 12.876 34.7816C12.876 35.6267 13.3425 36.2042 14.4264 36.7042C16.6228 37.7112 21.0586 37.7042 23.2478 36.6901C23.9584 36.3661 24.3675 36.0211 24.6044 35.5492C24.9489 34.8661 24.8413 34.1619 24.2886 33.5703C23.7144 32.9577 22.7812 32.5422 21.3672 32.2816C20.4916 32.1196 17.6994 32.0844 16.7232 32.2182Z" fill="#6C5DCE"/>
<path d="M12.876 39.8802V41.5281L13.4358 41.7816C14.491 42.2605 15.6179 42.5352 17.1467 42.683C18.3454 42.7957 20.5705 42.7253 21.6472 42.5422C22.5946 42.3802 23.8651 41.9929 24.3962 41.7042L24.7551 41.514L24.7767 39.8732C24.7838 38.9788 24.7838 38.2393 24.7623 38.2393C24.7479 38.2393 24.59 38.3168 24.4106 38.4154C21.841 39.8239 16.1562 39.8591 13.3641 38.4788L12.876 38.2393V39.8802Z" fill="#6C5DCE"/>
<path d="M12.876 44.6694C12.876 45.768 12.8832 45.8314 13.0626 46.1905C13.4574 46.9722 14.5269 47.5286 16.2854 47.8666C17.2185 48.0497 20.4485 48.0497 21.3816 47.8666C23.0468 47.5426 24.2024 46.944 24.6259 46.1835C24.7336 45.9933 24.7623 45.7398 24.7767 44.7328L24.8054 43.5144L24.2886 43.768C22.9535 44.4299 21.518 44.7187 19.3144 44.768C16.7304 44.8313 14.8714 44.5215 13.3641 43.768L12.876 43.5285V44.6694Z" fill="#6C5DCE"/>
</g>
<defs>
<clipPath id="clip0_251_293">
<rect width="36" height="36" fill="white" transform="translate(12 12)"/>
</clipPath>
</defs>
</svg>
