<svg width="92" height="49" viewBox="0 0 92 49" fill="none" xmlns="http://www.w3.org/2000/svg">
<path d="M33 39C35.7614 39 38 41.2386 38 44C38 46.7614 35.7614 49 33 49C30.2385 49 28 46.7614 28 44C28 41.2386 30.2385 39 33 39Z" fill="white"/>
<path d="M74 39C76.7614 39 79 41.2386 79 44C79 46.7614 76.7614 49 74 49C71.2385 49 69 46.7614 69 44C69 41.2386 71.2385 39 74 39Z" fill="white"/>
<path d="M25.4433 41.3721C25.1571 42.1953 25 43.0792 25 44C25 44.7946 25.1173 45.5616 25.333 46.2861H23.7539C21.4564 46.2859 19.5935 44.4534 19.5927 42.1924C19.5927 41.919 19.5928 41.6454 19.5927 41.3721H25.4433Z" fill="white"/>
<path fill-rule="evenodd" clip-rule="evenodd" d="M72.1689 8.75879C76.2287 8.76326 79.0585 10.8705 80.1787 14.7217C81.3507 18.7639 82.5097 22.809 83.7119 26.8428C83.8286 27.2289 84.1401 27.6326 84.4765 27.8682C85.7671 28.7767 87.1105 29.6127 88.4248 30.4873C90.7837 32.0584 91.9876 34.2524 91.9941 37.0547C91.9979 38.7675 91.9994 40.48 92 42.1924C92.0007 44.4532 90.1381 46.2858 87.8408 46.2861H81.667C81.8827 45.5617 82 44.7946 82 44C82 39.5818 78.4182 36.0001 74 36C69.5817 36 66 39.5817 66 44C66 44.7946 66.1173 45.5616 66.333 46.2861H40.667C40.8827 45.5617 41 44.7946 41 44C41 43.0792 40.8429 42.1953 40.5566 41.3721H55.1884C57.0269 41.3718 58.5175 39.9049 58.5175 38.0957V8.75684L72.1689 8.75879ZM64.3144 13.8486C63.9058 13.8487 63.5873 14.2004 63.5869 14.6025V22.418C63.5871 24.6795 65.4499 26.5126 67.748 26.5127H77.6259C77.9027 26.5127 78.1394 26.2609 78.0634 25.999C77.1245 22.6658 76.1901 19.3299 75.2383 16.001C74.7979 14.4598 73.9506 13.8489 72.3017 13.8467C69.6387 13.8424 66.9774 13.8444 64.3144 13.8486Z" fill="white"/>
<path d="M31.247 13.8252C31.7075 13.8254 32.081 14.1987 32.081 14.6592V16.5195H33.9414C34.4017 16.5197 34.7752 16.8931 34.7754 17.3535V19.2783C34.7752 19.7387 34.4017 20.1121 33.9414 20.1123H32.081V21.9727C32.0808 22.433 31.7074 22.8065 31.247 22.8066H29.3222C28.8621 22.8063 28.4884 22.4329 28.4882 21.9727V20.1123H26.6279C26.1677 20.1119 25.7941 19.7386 25.7939 19.2783V17.3535C25.794 16.8933 26.1677 16.5199 26.6279 16.5195H28.4882V14.6592C28.4883 14.1989 28.862 13.8256 29.3222 13.8252H31.247Z" fill="white"/>
<path fill-rule="evenodd" clip-rule="evenodd" d="M53.6367 0C54.5576 0.000311962 55.3046 0.747024 55.3047 1.66797V36.6953C55.3046 37.6163 54.5576 38.363 53.6367 38.3633H38.6767C37.2275 36.9038 35.2193 36 33 36C30.7807 36 28.7725 36.9038 27.3232 38.3633H12.1728C11.4366 38.363 10.7869 37.8799 10.5752 37.1748L0.0712572 2.14746C-0.249346 1.07762 0.552134 0.000427671 1.66891 0H53.6367ZM41.4101 9.05664C38.4518 5.87781 33.6554 5.87762 30.6972 9.05664C30.4748 9.29543 30.0956 9.29524 29.873 9.05664C26.9147 5.87781 22.1183 5.87762 19.1601 9.05664C16.2022 12.2358 16.2023 17.3901 19.1601 20.5693L28.4531 30.5566C29.4426 31.6198 31.1266 31.6198 32.1162 30.5566L41.4101 20.5693C44.368 17.3902 44.3678 12.2359 41.4101 9.05664Z" fill="white"/>
<path d="M65.7168 5.4209C67.5553 5.42093 69.0459 6.91825 69.0459 8.75684H62.3877C62.3877 6.91833 63.8783 5.42106 65.7168 5.4209Z" fill="white"/>
<path d="M59.8408 2.03418C60.3282 1.54609 61.118 1.54609 61.6054 2.03418L62.8545 3.28516C63.3419 3.77369 63.3419 4.56618 62.8545 5.05469C62.367 5.54304 61.5764 5.54296 61.0888 5.05469L59.8408 3.80371C59.3534 3.3152 59.3534 2.52269 59.8408 2.03418Z" fill="white"/>
<path d="M69.8281 2.03418C70.3156 1.54611 71.1053 1.54608 71.5927 2.03418C72.0802 2.52271 72.0802 3.31518 71.5927 3.80371L70.3447 5.05469C69.8572 5.54297 69.0665 5.54303 68.5791 5.05469C68.0917 4.56617 68.0917 3.77367 68.5791 3.28516L69.8281 2.03418Z" fill="white"/>
<path d="M65.7168 0C66.4062 8.69097e-05 66.9648 0.560132 66.9648 1.25098V2.50195C66.9648 3.19276 66.4061 3.75284 65.7168 3.75293C65.0274 3.75282 64.4688 3.19275 64.4687 2.50195V1.25098C64.4687 0.560147 65.0274 0.000110267 65.7168 0Z" fill="white"/>
</svg>
