<svg width="20" height="19" viewBox="0 0 20 19" fill="none" xmlns="http://www.w3.org/2000/svg">
<path d="M9.54913 0.909607C9.63164 0.696733 9.93343 0.696737 10.0159 0.909607L11.8831 5.72797C12.1314 6.36849 12.7314 6.8049 13.4173 6.8432L18.5775 7.13031C18.8053 7.14305 18.8979 7.42944 18.721 7.57367L14.7161 10.8383C14.1836 11.2724 13.9545 11.9788 14.1302 12.643L15.4515 17.6381C15.5099 17.8588 15.2654 18.0363 15.0735 17.9125L10.7308 15.1118C10.1534 14.7396 9.41163 14.7396 8.83429 15.1118L4.49152 17.9125C4.29964 18.0363 4.05521 17.8588 4.11359 17.6381L5.43488 12.643C5.61056 11.9788 5.38149 11.2724 4.84894 10.8383L0.844055 7.57367C0.667116 7.42944 0.759715 7.14305 0.98761 7.13031L6.14777 6.8432C6.83363 6.8049 7.43369 6.36849 7.68195 5.72797L9.54913 0.909607Z" stroke="#FFDE4C" stroke-width="1.5"/>
</svg>
